<svg version="1.2" xmlns="http://www.w3.org/2000/svg" viewBox="0 0 1050 1050" width="2000" height="2000">
	<title>LOGO-TANDEMN</title>
	<style>
		.s0 { fill: #ffffff } 
		.s1 { fill: #000000 } 
		.s2 { fill: #08565b } 
		.s3 { fill: #00f0ff } 
	</style>
	<g id="Page 1">
		<path id="Path 1" fill-rule="evenodd" class="s0" d="m0 1050.1h1050v-1050h-1050z"/>
		<path id="Path 2" fill-rule="evenodd" class="s0" d="m0 1050.1h1050v-1050h-1050z"/>
		<path id="Path 3" fill-rule="evenodd" class="s1" d="m0 1050.1h1050v-1050h-1050z"/>
		<path id="Path 5" fill-rule="evenodd" class="s2" d="m984.7 364.7c-7.9-23.4-18.3-45.6-31.3-66.4-26.2-42.4-61.3-78.6-103-106-16.1-10.8-35.7-22.8-56.8-32-13.8-5.9-28.4-10-43.1-12.2-10.6-1.8-21.5-3-31.9-4.3-6.8-0.7-13.8-1.6-20.7-2.5-8.2-1.1-16.6-2.5-24.9-3.8-17.6-2.7-35.7-5.5-53.8-6.8-55.1-3.8-110.4 1.4-163.7 15.8-26.5 7.2-52.5 16.5-77.5 28.2-6.1 2.8-12.2 5.9-18.3 8.9-116.9 61-208.1 173.4-243.4 300.7-35.4 127.4-15.5 270.6 53.6 383.3 15.6 25.5 31.6 37.3 49 36.6 19.9-0.9 31.9-17.8 43.6-34.1 6.5-9 12.9-18.1 20.8-24.9 21.9-18.9 54.6-17.3 77.7-9.4 19.7 6.7 37.7 18 55.1 28.7 5.9 3.6 11.8 7.4 17.9 11 62.1 36.6 134.4 55.1 206.5 55.1 54.4 0.1 108.4-10.6 158.5-32 41.4-17.7 68.1-39.3 82.1-66.2 19.9-38.6 12-83.8 4.3-127.6-7.9-44.8-15.9-91.1 7-128.6 10.8-17.8 27.7-31.2 44-44.3 16.3-13.1 33.5-26.7 44.7-45.2 23.8-38.6 15-87.8 3.6-122zm-6.9 120.5c-10.9 17.8-27.6 31.3-43.9 44.2-16.5 13.3-33.6 26.9-44.9 45.2-23.7 38.6-15.4 85.6-7.3 131.1 7.5 43.3 15.4 87.8-4 125.3-13.4 26-39.8 47.2-80.4 64.4-115.1 49.3-253.7 40.5-361.7-23-5.9-3.6-12-7.3-17.9-10.9-17.6-11-35.7-22.3-55.8-29.1-11-3.8-22.6-5.5-34.1-5.5-16.7 0-33.5 4.3-47 15.7-8.3 7-14.9 16.5-21.5 25.7-11.7 16.3-22.6 31.8-40.8 32.5-15.9 0.7-30.8-10.8-45.7-34.8-68.4-112-88.3-254.3-53.1-380.8 35.1-126.4 125.6-237.9 242-298.3 5.9-3.1 12-6.1 18.1-9 24.8-11.5 50.5-20.8 76.8-28 53-14.2 107.9-19.4 162.4-15.6 17.9 1.3 36.1 4.1 53.6 6.8 8.3 1.3 16.7 2.5 25 3.8 6.8 0.9 13.8 1.8 20.6 2.5 10.4 1.3 21.4 2.5 32 4.1 14.5 2.4 28.7 6.3 42.1 12 21 9 40.2 21 56.2 31.6 41.2 27.1 75.9 63 101.9 105 12.7 20.6 23.1 42.7 30.8 65.7 11.3 33.7 20 81.6-3.4 119.4zm-59-180.5c-12-19.5-26.2-37.8-42.2-54.1-5-5.2-10.4-10.3-15.7-15.1-12.1-10.6-24.8-20.3-38.3-28.9-14.1-9.1-33-20.6-53.4-29.1-12.9-5.3-26.6-8.9-40.4-10.9-8.3-1.3-16.1-2.2-23-2.9l-8.4-0.9c-5.7-0.5-11.8-1.2-17.8-1.9-7.1-0.9-14.3-1.8-21.5-2.9-17-2.3-34.4-4.7-52-5.6-25.7-1.2-51.2-0.3-76.6 2.5-25.1 2.7-49.9 7.4-74.1 14.2-24.3 6.6-47.9 15.4-70.7 26.4-5.6 2.7-11.1 5.4-16.7 8.4-46.7 25.1-88.6 58-124 97.3-47.5 52.2-81.8 115.1-100.1 183.3-15.1 58-18.5 118.4-9.9 177.8 8.5 59.4 28.9 116.3 60.3 167.4 14.2 22.8 28.5 33.6 44.3 33 18.2-0.7 28.9-15.6 39.5-30.1 5.7-7.9 11.7-16.2 18.8-21.9 16.7-14 42.9-16.9 69.8-8.1 19.8 6.5 37.9 17.1 55.7 27.3 4.6 2.7 9.3 5.4 14.1 8.1 63.2 35.3 133.5 53.8 201.3 53.8 25 0 49.7-2.5 74.1-7.7 22.1-4.9 43.8-12 64.4-21.4 37.7-17 62.1-37.6 74.5-63.3 16.9-35 9.7-75.5 2.7-114.6-2.7-14.9-5.4-30.4-6.8-45.3-3.1-32.8 1.2-56.3 13.8-76.4 10-16.1 25.7-28.5 40.5-40.7 15.3-12.4 31.3-25 41.7-42 22.4-36.2 14.9-81.8 4.5-113.6-7-21.9-16.6-42.5-28.4-62.1zm21 173.4c-10 16.3-25.7 28.9-40.7 41.1-15.1 12.2-30.9 24.9-41.5 41.6-13.1 20.8-17.4 45-14.3 78.6 1.4 15 4.1 30.3 6.8 45.4 7 38.5 14 78.5-2.3 112.4-12.1 24.8-35.7 45.1-72.7 61.8-20.5 9.1-41.8 16.3-63.7 21-24 5.2-48.8 7.7-73.4 7.7-67.1 0-136.9-18.3-199.5-53.3-4.7-2.7-9.3-5.4-14.2-8.1-17.9-10.2-36.2-20.8-56.1-27.4-10.1-3.4-20.5-5.2-31.1-5.2-16.3 0-31.2 4.6-42.1 14-7.4 6.2-13.5 14.5-19.4 22.6-10.6 14.3-20.5 28-36.8 28.5-14.3 0.5-27.6-9.7-41.1-31.4-61.5-99.4-80.4-227.5-50-342.3 18.1-67.7 52-130.1 99.2-182 35.2-38.9 76.8-71.4 122.9-96.3 5.4-2.9 10.9-5.6 16.5-8.3 22.6-10.7 45.9-19.3 70-26.2 24-6.6 48.8-11.3 73.5-14 25.3-2.8 50.8-3.5 76.3-2.3 17.4 0.9 34.8 3.2 51.7 5.6 7 0.9 14.3 1.9 21.5 2.8 5.9 0.8 12 1.3 17.9 2l8.5 0.9c6.8 0.7 14.7 1.6 22.7 2.9 13.7 2 26.8 5.5 39.5 10.8 20.1 8.2 38.8 19.7 52.8 28.7q19.9 12.9 37.6 28.5c5.4 4.6 10.6 9.7 15.7 14.9 15.7 16.3 29.7 34.2 41.6 53.8 11.6 19.2 21.1 39.7 28.1 61 10.5 30.9 18 75.2-3.9 110.2zm-55.6-166.9c-11-18.1-24.1-35-39-50-4.6-4.9-9.6-9.6-14.7-13.9-11.1-9.8-23.1-18.6-35.7-26.5-19.3-12.2-34.8-20.3-50-26.2-12.1-4.7-24.8-7.9-37.5-9.7-7.9-1.1-15.5-1.8-21.4-2.5l-9.7-0.9c-4.8-0.4-9.8-0.9-14.7-1.4-5.9-0.6-11.8-1.3-17.7-2-16.5-1.8-33.6-3.8-50.5-4.3-23.6-0.6-47.5 0.7-71 3.7-22.6 2.7-45 7.4-67.1 13.7-21.9 6.3-43.2 14.5-63.9 24.6-5.5 2.6-10.4 5.2-15.1 7.7-42.7 23.7-81 54.3-113.5 90.6-43.8 48.2-74.8 106.7-90.5 169.9-12.7 51.8-15 105.5-7.3 158.2 7.7 52.8 26.2 103.2 54.4 148.6 12.5 19.9 25.1 29.6 38.7 29.6h0.9c16.2-0.5 26-13.5 35.5-26 5.2-6.8 10.6-13.8 16.9-19 14.7-12.1 38-14.6 62.1-6.7 20.8 6.7 39.3 16.5 58.6 26.8l7.8 4.1c48.9 25.8 118.2 52.9 193.6 52.9 20.6 0 41.2-2.1 61.3-6.3 20.6-4.5 40.7-11.3 59.8-20.4 33.7-16.2 56.1-36.6 66.7-60.7 13.8-31.4 7.2-67.1 0.9-101.9-2.7-14.7-5.6-29.9-6.8-44.7-2.4-29.2 2-51.3 13.8-69.6 9.3-14.7 23.5-26 37.1-37.1 14.2-11.3 28.7-23.1 38.6-38.8 21-33.5 14.4-75.3 5.2-104.6-6.3-19.9-14.9-39.1-25.8-57.2zm17.6 159.9c-9.4 15-23.9 26.5-37.7 37.8-14 11.1-28.4 22.8-38.1 37.9-12.2 19-16.8 42-14.3 71.9 1.2 14.9 4.1 30.2 6.8 45.1 6.6 35.7 12.8 69.4-0.5 99.7-10.3 23.2-32.1 43.1-65 58.9-18.6 8.9-38.6 15.8-58.8 20.2-97.3 20.7-191.1-13.8-252.6-46.2l-7.6-4.2c-18.8-10-38.2-20.2-59.4-27.1-8.9-3-18.4-4.5-28-4.6-14.5 0-27.6 4.1-37.3 12-6.6 5.4-12.2 12.5-17.4 19.7-9.5 12.6-18.3 24.2-32.8 24.6-12.8 0.4-24.6-8.8-36.6-27.8-55.6-88.6-72.5-199.3-46.7-304.1 15.5-62.6 46.3-120.6 89.6-168.3 32.3-36.1 70.3-66.4 112.6-89.9 4.5-2.5 9.4-5 14.9-7.7 20.5-9.9 41.7-18.1 63.4-24.4 21.7-6.3 43.9-10.8 66.5-13.5 23.4-3 47-4.3 70.5-3.7 16.9 0.5 33.8 2.3 50.3 4.3 5.9 0.7 11.8 1.2 17.7 1.9 4.9 0.6 9.9 0.9 14.8 1.5l9.5 0.9c5.7 0.5 13.4 1.2 21.1 2.5 12.6 1.8 25 4.8 36.8 9.5 14.9 5.9 30.2 13.8 49.4 25.8 12.3 7.9 24.2 16.5 35.1 26.2 5 4.3 9.9 9 14.6 13.8 14.7 14.9 27.6 31.6 38.3 49.4 10.8 17.7 19.4 36.6 25.7 56.3 9.2 28.5 15.4 69.3-4.8 101.6zm-52.2-153.3c-10.1-16.6-21.9-32.1-35.6-45.9-4.3-4.5-8.9-8.8-13.6-12.7-10.4-9-21.5-17.1-33.2-24.2-14.7-9.4-30.3-17.1-46.5-23.4-11.3-4.1-23.1-7-35-8.4-5.7-0.7-11.8-1.4-19.7-2l-11.1-0.9c-3.8-0.3-7.6-0.5-11.3-0.9l-13.7-1c-16.1-1.5-32.8-2.9-49.5-2.9h-0.2c-21.7 0.2-43.6 1.8-65.1 5-20.3 2.9-40.4 7.2-60.1 13.1-19.7 5.9-38.7 13.6-57 22.8-5.2 2.7-9.6 4.8-13.5 7.2-37.1 21.1-71.9 49.3-103.3 83.9-40.1 44.4-68 98.2-81.1 156.5-21.4 93.8-5.4 191.8 43.7 268.6 11.3 17.7 22.8 26 35 26 14.4-0.2 23-11.3 31.6-22.1 4.5-5.7 9.3-11.6 14.9-16.1 12.9-10.1 33.2-12 54.4-5.4 22.9 7.2 43.7 17 63.1 26.5 47.9 23.5 115.2 51.9 185.9 51.9 16.3 0 32.6-1.6 48.8-4.8 19.2-4 37.7-10.5 55.1-19.4 30.1-15.5 50-35 59-58 10.9-27.8 4.8-59-0.9-89.1-2.9-14.6-5.7-29.7-6.6-44.2-1.8-26.2 2.5-46.3 13.8-63.1 8.6-13.1 21.5-23.5 33.9-33.4 12.9-10.4 26.4-21.4 35.5-35.5 19.6-30.7 14-69.1 5.9-95.7-6.1-18.3-13.8-35.8-23.6-52.4zm14.3 146.3c-8.8 13.8-21.9 24.4-34.6 34.6-12.8 10.2-25.7 20.6-34.7 34.3-11.6 17.6-16.1 38.4-14.3 65.3 1.1 14.7 3.9 29.9 6.8 44.5 5.9 31 11.7 60.4 1.1 87.2-8.6 22-28 40.9-57.4 55.9-17.1 8.8-35.2 15.3-54 19.2-86.7 18-174.2-18.1-232.6-46.8-19.3-9.5-40.3-19.4-63.5-26.7-8-2.5-16.5-4-24.9-4-12.7 0-24.2 3.4-32.7 9.9-5.9 4.7-10.7 10.8-15.4 16.7-8.4 10.6-16.1 20.4-28.7 20.6h-0.5c-10.8 0-21.2-7.9-31.6-24.4-48.6-76.1-64.4-172.9-43.3-265.9 13-57.6 40.6-110.9 80.1-154.8 31-34.3 65.6-62.4 102.4-83.3 4-2.1 8.1-4.4 13.3-7.1 18.1-9.2 37.1-16.7 56.5-22.6 19.6-6 39.5-10.3 59.6-13 21.3-3.2 42.9-4.8 64.6-5h0.1c16.6 0 33.1 1.4 49.2 2.9l13.5 1.1 11.3 0.9c3.7 0.1 7.3 0.5 11.1 0.9 7.9 0.7 13.8 1.2 19.7 1.9 11.7 1.5 23 4.3 33.9 8.3 16 6.3 31.4 14 46 23.1 11.6 7 22.6 15.1 32.8 23.9 4.7 3.9 9.1 8.2 13.5 12.5 13.4 13.7 25.3 28.8 35.1 45.3 9.7 16.1 17.4 33.5 23 51.6 7.9 26.2 13.3 63.4-5.4 93zm-49-139.6c-8.9-15.3-19.7-29.3-32.3-41.6-4.1-4.2-8.2-7.9-12.7-11.7-9.7-8.1-19.9-15.4-30.9-21.9-13.6-8.2-28.1-15.1-43.2-20.4-10.4-3.6-21.2-6-32.1-7.2-5.4-0.6-11.1-1.1-18.1-1.6-4.4-0.2-8.8-0.6-13.1-0.8l-7.6-0.3-8.4-0.6c-16.2-0.8-32.8-1.9-49.4-1.4-19.9 0.7-39.8 2.9-59.5 6.3-18 2.9-35.7 7-53.1 12.6-17.4 5.5-34.1 12.5-50.3 20.9-4.6 2.6-8.4 4.5-11.8 6.5-32.8 19.4-64.2 45.6-92.9 77.5-36.3 40.4-60.9 89.7-71.3 143-16.5 81.8-1.8 165.8 40.4 230.4 9.9 15.1 19.7 22.4 30.3 22.4 12.4 0 20.1-9.1 27.5-17.9 3.7-4.9 8-9.2 12.7-13.1 15.8-11.7 37.9-6.7 46.7-4.2 20.4 6 40.3 13.3 59.9 21.9 54 24.4 113.9 51.3 175.8 51.3 12.9 0 25.8-1.2 38.6-3.7 17.6-3.6 34.4-9.9 50.2-18.5 18.3-10.2 42.2-28 51.3-55.3 8.1-24.2 2.7-50.9-2.5-76.6-2.8-14.3-5.9-29-6.6-43.4-1.3-23.1 3-40.9 13.6-56.3 7.9-11.5 19.4-20.8 30.5-29.8 11.9-9.5 24.1-19.4 32.3-32.3 18.1-28 13.7-62.6 6.8-86.8-5-16.4-12-32.5-20.8-47.4zm10.8 132.6c-8.1 12.4-19.9 22-31.6 31.6-11.3 9.1-23 18.4-31.2 30.5-11.1 16.1-15.6 34.8-14.4 58.6 0.8 14.6 3.8 29.4 6.9 44 5.3 26.5 10.5 51.5 2.6 74.8-8.7 26-31.9 43.2-49.7 53.1-15.4 8.6-31.9 14.7-49.1 18.3-74.1 14.7-147.5-18.3-212.1-47.5-19.5-8.8-39.6-16.2-60.1-22.3-7.2-2.3-14.7-3.4-22.2-3.6-10.8 0-20.3 2.7-27.7 8.1-5 3.9-9.5 8.6-13.4 13.6-7.2 8.6-14 16.7-24.8 16.7-9.3 0-18.3-6.8-27.4-20.8-41.8-63.9-56.4-146.8-40-227.7 10.4-52.5 34.8-101.3 70.5-141.2 28.5-31.6 59.5-57.4 92.2-76.8 3.2-1.9 7-3.9 11.7-6.4 15.9-8.5 32.6-15.3 49.6-20.8 17.3-5.4 34.7-9.5 52.6-12.4 19.6-3.4 39.3-5.6 59.2-6.3 16.4-0.5 32.9 0.5 49 1.4l8.4 0.6 7.6 0.3c4.3 0.2 8.8 0.4 13.1 0.8 7 0.3 12.7 0.8 17.9 1.6 10.8 1 21.2 3.6 31.4 7 14.7 5.3 29.1 12.2 42.5 20.2 10.8 6.3 20.8 13.5 30.4 21.6 4.3 3.6 8.4 7.5 12.5 11.5 12.2 12.2 23 26 31.8 40.9 8.8 14.7 15.6 30.5 20.2 47 6.7 23.1 11 56.7-6.4 83.6zm-45.4-126.2c-7.9-13.8-17.8-26.3-29.1-37.5-3.7-3.5-7.7-7.1-11.6-10.4-8.8-7.3-18.5-13.8-28.4-19.3-12.5-7.2-25.8-13.1-39.6-17.6-9.5-3.1-19.4-5-29.5-5.9-5-0.6-10.2-0.9-16.5-1.1-5-0.2-10.2-0.4-15.2-0.6l-5.4-0.1c-16.5-0.6-33.7-0.9-50.6 0.1-18.1 1.5-36.1 4-53.8 7.8-15.6 2.8-31.1 6.8-46.1 12q-22.6 7.8-43.6 19.4c-3.1 1.6-6.7 3.7-10.3 5.9-28.5 17.9-56.3 41.6-82.7 70.8-31.5 35-53.4 81-61.7 129.4-11.8 69.4 1.6 139.4 37.2 192 5.3 7.9 13.8 18.6 25.6 18.8h0.6c10 0 16.6-7 22.9-13.8 3.2-3.8 6.8-7.2 10.8-10 9.1-6.3 23.3-7.2 38.9-2.7l11.1 3c15.5 4 30.5 9 45.4 14.7 10.3 4.2 20.8 8.8 31.1 13.1 43.2 18.7 87.7 37.9 133.8 37.9 9.9 0 19.6-0.9 29.3-2.7 16.1-3.2 31.4-9.2 45.4-17.8 16.1-9.7 36.7-26.7 43.6-52.5 5.5-20.7 0.7-41.8-4.2-64.4-3-13.9-6.3-28.2-6.8-42.4-0.7-19.7 3.8-36.1 13.6-49.7 7.2-10 17.3-18.3 27.1-26.2 10.8-8.6 21.7-17.6 29.5-29.2 16.6-25.3 13.2-56.2 7.5-77.9-4.3-14.9-10.4-29.4-18.3-43.1zm7.4 119c-7.4 11.1-18.2 19.9-28.6 28.3-9.8 8.1-20.2 16.4-27.6 26.8-10.4 14.3-15.1 31.4-14.4 51.8 0.6 14.4 3.8 28.9 6.9 43.1 4.8 22.1 9.5 42.9 4.3 62.6-6.7 24.6-26.6 40.9-42 50.4-13.7 8.5-28.7 14.2-44.3 17.2-55.5 10.6-109.1-12.5-161-34.8-10.2-4.3-20.8-8.9-31-13.1-14.9-5.7-30.2-10.7-45.8-14.7l-10.9-3.2c-16.5-4.7-31.8-3.6-41.8 3.2-4.1 3.1-8.1 6.7-11.5 10.6-6.1 6.7-12 12.9-20.8 12.8-7.7-0.2-14.9-5.8-22.8-17.3-35.2-51.6-48.4-120.7-36.8-189.3 8.3-47.9 29.8-93.1 60.8-127.7 26.2-29.1 53.7-52.6 82-70.2 3.6-2.1 7.2-4.1 10.1-5.7 13.8-7.5 28.2-14 42.9-19q22.3-7.5 45.7-11.9c17.6-3.5 35.5-6.1 53.5-7.5 16.7-1.1 33-0.7 50.4-0.2l5.4 0.2c5 0.2 10 0.2 15.2 0.5 6.3 0.2 11.5 0.6 16.4 1.1 9.7 0.9 19.3 2.9 28.5 5.8 13.6 4.5 26.7 10.2 39.1 17.4 9.9 5.5 19.2 11.8 27.8 19 4 3.2 7.9 6.8 11.5 10.2 11.1 11 20.6 23.3 28.3 36.8 7.8 13.3 13.7 27.4 17.6 42.3 5.6 20.5 8.8 50.5-7.1 74.5zm-42-112.3c-7-12.2-15.6-23.5-25.7-33.2-3.4-3.2-7-6.5-10.8-9.3-8-6.5-16.6-12.2-25.8-17.1-11.5-6.3-23.7-11.1-36.2-14.9-8.8-2.3-17.8-3.9-26.8-4.5-4.6-0.3-9.5-0.5-14.9-0.7-5.3-0.2-11.3 0-17 0-15.8 0-31.6 0.7-47.2 2.4-16.1 2.1-32.3 5-48.3 8.9-13.2 2.9-26.3 6.7-39.1 11.5-12.7 4.9-24.9 10.8-36.7 17.6-2.7 1.6-5.8 3.4-8.7 5.4-24.5 16.3-48.2 37.3-72.4 64.4-28 31.2-46.5 72.3-52.3 115.9-7.5 57.8 4.5 112.3 34 153.7 4.4 6.3 11.4 14.8 20.9 15.3 8.5 0.5 14-4.7 19.4-9.9 2.7-2.7 5.6-5 8.8-7.1 10.1-6 23.9-3.5 31.2-1.5 7.2 2 14.4 3.6 21.2 5 10.8 2.2 21.4 4.9 31.9 8.5 15.8 5.5 31.8 12.7 47.2 19.7 33.8 15.3 68.6 30.9 105 30.9 7.2 0 14.3-0.7 21.5-2 14.6-2.7 28.5-8.4 40.7-16.9 19.8-13.2 32.3-30.8 35.9-49.8 3.3-17.1-1-34.3-5.7-52.4-3.4-13.5-6.8-27.3-7-40.9-0.2-16.7 4.3-30.9 13.6-43.1 6.5-8.4 15.1-15.6 23.5-22.4 9.5-7.7 19.6-15.8 26.4-26 15.3-22.7 12.9-49.9 8.4-68.9-3.2-13.7-8.2-26.6-15-38.6zm3.9 105.3c-6.6 9.9-16.3 17.8-25.6 25.3-8.7 7-17.4 14.4-24.3 23-9.8 12.9-14.5 27.8-14.3 45.2 0.2 14.2 3.8 28.1 7.2 41.8 4.4 17.9 8.6 34.6 5.5 50.9-3.4 18-15.4 34.8-34.2 47.6-11.9 8.1-25.3 13.6-39.3 16.3-43.3 7.9-84.5-10.8-124.4-28.7-15.4-7-31.6-14.4-47.3-19.7-10.6-3.4-21.4-6.3-32.3-8.5-6.9-1.4-14-3-21-5-7.9-2.1-22.8-4.7-33.9 1.8-3.4 2.2-6.7 4.7-9.4 7.5-5 4.9-9.8 9.4-16.8 8.8-7.9-0.5-14.4-8-18.3-13.8-28.9-40.7-40.6-94.4-33.2-151.2 5.5-42.9 23.8-83.5 51.3-114.1 24-26.8 47.4-47.6 71.8-63.7 2.8-2 5.7-3.6 8.4-5.2 11.5-6.9 23.7-12.6 36.2-17.4 12.6-4.7 25.5-8.5 38.6-11.3 15.8-4 31.8-6.9 47.7-9 15.6-1.6 31.2-2.3 46.9-2.3 5.7 0 11.3 0 16.8 0 5.6 0 10.2 0.3 14.7 0.7 8.8 0.5 17.4 2.1 26.1 4.5 12.2 3.5 24 8.4 35.3 14.5 9 4.7 17.6 10.2 25.5 16.7 3.6 2.8 7.1 5.9 10.4 9.1 19.5 19.2 33.5 43.4 40 70 4.3 18.5 6.4 44.8-8.1 66.2zm-38.6-98.9c-5.9-10.7-13.4-20.6-22.2-29-3.1-2.9-6.3-5.6-9.7-8.3-7.4-5.7-15.2-10.6-23.5-14.5-10.4-5.2-21.5-9.2-32.8-12-7.9-1.8-15.8-2.9-23.9-3.3-4.1-0.1-8.6-0.1-13.3-0.1-4.5 0-9.3 0.1-15.2 0.5-14.2 0.7-28.2 2.2-42 4.5-14.4 2.5-28.4 6.3-42.5 10.4-11 2.9-21.6 6.6-32.1 10.9-10.5 4.5-20.5 9.7-30 15.8-2.3 1.5-4.7 3.1-7 4.7-20.1 14.5-40.4 33.4-62.1 57.6-24.6 27.4-39.8 64-42.5 102.6-3.2 44.5 7.7 85.4 30.5 115.6 3.6 4.6 9.1 10.9 16.3 11.6 6.7 0.7 11.1-2.5 15.5-5.5 2.1-1.7 4.3-3.1 6.6-4.2 7.2-3.2 16.9-1.9 23.7-0.2 7.7 1.8 15.6 3.3 23.5 4.2 8.8 0.9 17.6 2.7 26.2 4.8 18.3 5.4 36.2 14.4 53.4 23 27.1 13.6 54.9 27.6 84.5 27.6 5.2 0 10.3-0.3 15.3-1.2 13.1-2.4 25.5-7.9 36.1-16 16.5-12.6 26.7-29.8 28.1-47.2 1.1-13.6-3-27.6-7-41.1-3.7-12.7-7.7-25.8-7.3-38.9 0.2-13.3 4.8-26.2 13.4-36.4 5.6-6.9 12.9-13 19.9-18.7 8.5-7 17.3-14 23.5-23.1 10.8-15.5 14.2-36.8 9.2-60-2.3-12-6.6-23.5-12.6-34.1zm0.6 91.9c-5.9 8.6-14.6 15.6-22.8 22.4-7.2 6-14.7 12.1-20.5 19-9.1 10.8-14.1 24.4-14.3 38.6-0.2 13.7 3.8 27.1 7.5 40 4.1 13.8 7.9 26.8 6.8 39.9-1.4 16.5-11.1 32.6-26.7 44.5-10 7.9-21.9 13.1-34.4 15.2-34.5 5.8-65.2-9.7-97.6-26-17.4-8.8-35.6-17.9-54.2-23.2-8.8-2.3-17.8-3.9-26.8-5-7.9-0.9-15.6-2.3-23.1-4.1-7.4-1.8-17.9-3.2-26 0.4-2.5 1.2-5 2.6-7.4 4.4-4.1 3.1-7.7 5.6-12.9 5.1-5.7-0.8-10.8-6.3-13.8-10.4-22.4-29.3-33-69.5-29.8-113.1 2.7-37.6 17.6-73.4 41.6-100.4 21.6-24.1 41.7-42.9 61.6-57.3 2.3-1.6 4.6-3.2 6.8-4.6 9.3-6 19.2-11.2 29.4-15.5 10.2-4.3 20.8-7.9 31.6-10.7 14.2-4 28-7.8 42.2-10.3 13.8-2.3 27.6-3.7 41.6-4.5 5.9-0.3 10.7-0.5 15-0.5 4.7 0 9 0 13.1 0.2q11.9 0.5 23.2 3.2c11.1 2.7 21.9 6.7 32.1 11.7 8.1 3.9 15.8 8.8 23 14.3 3.2 2.5 6.4 5.2 9.3 8.1 8.6 8.3 16 17.8 21.7 28.2 5.8 10.2 9.9 21.3 12.4 32.8 4.8 22.6 1.8 42.9-8.6 57.6zm-35.2-85.2c-4.8-9.4-11.3-17.8-19-25-2.7-2.5-5.6-4.8-8.6-7.1-6.7-4.9-13.7-9-21.2-12.2-9.5-4.2-19.4-7.2-29.4-9.2-7-1.2-14-2-21.2-2-3.8 0-7.7 0-11.6 0.2-4 0.2-8.7 0.6-13.3 1.1-12.4 1.3-24.6 3.6-36.8 6.6-12.2 3.1-24.4 7.4-36.8 11.7-8.6 2.9-16.8 6.3-24.9 10.4q-12.1 6.2-23.2 14c-1.6 1.3-3.6 2.5-5.4 4.1-20.2 16.5-38.2 35.9-51.6 51.2-21.7 24.5-33.4 56.5-33 89.3 0.5 30.3 10.2 57.8 27.2 77.2 2.9 3.2 6.7 7 11.3 8 4 0.7 7.9 0.4 11.5-1.2 1.5-0.6 3.1-1.1 4.5-1.5 4-0.9 9.3-0.5 16.3 1.1q11.9 2.2 23.7 2.2c7.7 0.1 15.3 0.9 22.8 2.1 18.8 4.1 36.8 14.6 53.8 24.8 21.7 12.7 44.2 25.8 68.7 25.8 3.5 0 6.9-0.2 10.3-0.7 11.6-2 22.6-7.2 31.4-15.1 13.4-12 21.1-28.5 20.2-44.5-0.5-10.4-4.3-20.6-8-30.6-4.3-11.7-8.8-23.7-8.1-35.9 0.7-10.8 5-20.5 13.5-29.8q7.5-7.8 16.1-14.5c7.5-6.1 15.3-12.6 21-20.3 9.9-13.3 13.3-31.4 10-51-1.9-10.4-5.3-20.2-10.2-29.2zm-2.9 78c-5.3 7.4-12.9 13.7-20.2 19.8-6 4.6-11.5 9.5-16.5 14.9-9 9.8-13.7 20.2-14.4 31.9-0.9 13.1 3.8 25.5 8.3 37.3 3.7 10.2 7.3 19.7 7.9 29.6 0.7 14.9-6.5 30.3-19.1 41.6-8.2 7.6-18.4 12.6-29.6 14.4-27.4 4.3-51.3-9.9-76.6-24.8-17.4-10.2-35.5-20.8-54.9-24.9-7.7-1.4-15.6-2.2-23.3-2.3-7.7-0.2-15.4-0.9-23.1-2.6-4-0.8-8.1-1.4-12.2-1.6-1.8 0-3.8 0.2-5.6 0.6-1.6 0.3-3.4 0.9-4.9 1.4-3.2 1.1-5.9 2-9.5 1.3-3.6-0.8-7-4.2-9.5-7-16.5-18.7-25.8-45.2-26.3-74.9-0.4-31.9 11.1-62.7 32.1-86.8 13.2-15.1 31.2-34.3 51.3-50.6 1.8-1.4 3.6-2.9 5.2-3.9 7.2-5.2 14.7-9.9 22.6-13.8 7.9-4 16.1-7.4 24.6-10.3 12.4-4.3 24.4-8.4 36.4-11.5 11.8-3 24-5.2 36.2-6.4 4.7-0.6 9-0.9 13.1-1.1 4.2-0.2 7.9-0.4 11.5-0.2 6.8 0 13.8 0.7 20.6 2 9.9 1.8 19.6 4.8 28.8 9 7.1 3.2 14.1 7.1 20.4 11.8 2.9 2.2 5.8 4.5 8.3 6.8 7.3 6.8 13.6 15.1 18.3 23.9 4.6 8.8 8 18.3 9.7 28.2 3 18.6-0.2 35.7-9.6 48.2zm-47.5-92.2c-2.3-2.1-5-4.1-7.5-5.9-19.4-13.5-45.4-19.2-73.4-16.2-27.3 2.9-54 14-74.1 23.5-14 6.3-26.9 14.9-38.1 25.7-14.8 14.4-28.8 30.3-41.2 44.5-19.8 22.4-28.6 50.8-23.3 76.1 5.2 25.6 25.4 46.1 49.1 49.8 7.5 0.9 15.1 0.9 22.6 0.2 6.8-0.7 13.8-0.7 20.7 0 18.4 2.4 34.6 14.2 50.4 25.5 17.2 12.6 35 25.3 55.6 25.3 2.1 0 4.3-0.2 6.4-0.4 26.4-4.6 44-29.6 39.3-55.9 0-0.2 0-0.2 0-0.4-1.6-7.5-5.3-14.7-8.8-21.7-5.2-10.6-10.2-20.5-8.9-31.2 1.8-14 13.1-23.2 24.9-33 6.8-5.6 13.8-11.3 19.2-18.2 20.5-27.2 10.1-67.4-12.9-87.7zm9.7 85.2c-5 6.5-11.9 12-18.5 17.6-12 9.7-24.2 19.9-26.2 35.4-1.4 11.8 4 22.7 9.3 33.3 3.4 6.8 7 13.8 8.7 21 4.3 24.4-11.9 47.6-36.3 52.1-21.9 2.8-40.2-10.3-59.4-24.3-16.1-11.6-32.6-23.7-52-26q-4.6-0.5-9.2-0.5c-4.1 0-8.2 0.2-12.2 0.5-7.1 0.7-14.5 0.7-21.8-0.2-21.9-3.4-41.3-23.1-46.3-47-5.1-23.8 3.6-51.3 22.6-72.8 12.3-14 26.3-30 41.1-44.2 10.9-10.4 23.5-18.8 37.1-24.9 19.9-9.3 46.3-20.3 73-23.1 27.3-2.9 52.4 2.5 71.1 15.4 2.5 1.8 5 3.6 7.1 5.7 21.6 18.7 31.6 56.6 11.9 82z"/>
		<path id="tandemn" class="s0" aria-label="tandemn"  d="m180.8 573q-12.1 0-19.8-6.9-7.7-6.9-7.7-25.4v-42h-19.4v-12.9h19.4v-25.8l14.7-0.1v25.9h28.8v12.9h-28.8v42.7q0 11 4.3 15.1 4.4 4 11.4 4h13.1v12.5zm67.1 2.5q-11.7 0-21.3-6.2-9.7-6.1-15.2-16.6-5.6-10.6-5.6-23.3 0-12.5 5.6-23.1 5.5-10.5 15.2-16.7 9.6-6.2 21.3-6.2 11.7 0 20.9 5.7 9.2 5.6 13.7 15.5v-18.8h14.1v87.2h-14.1v-18.5q-4.5 9.7-13.7 15.3-9.2 5.7-20.9 5.7zm3.3-13.8q8.4 0 15.5-4.3 7-4.2 11.1-11.6 4.2-7.4 4.2-16.4 0-8.9-4.2-16.2-4.1-7.4-11.1-11.7-7.1-4.3-15.4-4.3-8.5 0-15.6 4.2-7 4.1-11.2 11.4-4.1 7.4-4.1 16.6 0 9.4 4.1 16.8 4.2 7.3 11.2 11.4 7.1 4.1 15.5 4.1zm74-75.9h14.1v16.9q2.4-5.7 7.2-10 4.8-4.4 11.2-6.9 6.4-2.4 13.7-2.4 17.3 0 26.3 10.7 9 10.8 9 31.6v47.3h-14.7v-47q0-14.7-6.3-21.8-6.4-7.1-18.1-7.1-7.3 0-13.7 3.7-6.3 3.7-10.2 10.6-3.8 6.8-3.8 15.8v45.8h-14.7zm143.5 89.6q-12 0-21.9-6.1-9.8-6.2-15.4-16.7-5.6-10.6-5.6-23.2 0-12.7 5.6-23.2 5.5-10.6 15.3-16.7 9.9-6.2 22.1-6.2 7.8 0 14.4 2.9 6.7 2.9 11.5 7.7 4.8 4.7 7.4 10.3l-0.3-8.5v-43.1h14.7v120.4h-14.1v-18.6q-2.8 6-7.8 10.8-5 4.8-11.6 7.5-6.6 2.7-14.3 2.7zm2.4-13.6q8.5 0 15.5-4.3 7.1-4.3 11.2-11.7 4.2-7.4 4.2-16.4 0-8.9-4.2-16.3-4.1-7.5-11.1-11.7-7.1-4.3-15.6-4.3-8.5 0-15.5 4.3-7.1 4.1-11.2 11.6-4 7.3-4 16.4 0 9 4 16.5 4.1 7.3 11.1 11.6 7 4.3 15.6 4.3zm154.1-34.6q0 1.2-0.2 6h-72.3q0.8 8.6 5 15.1 4.2 6.4 10.5 9.9 6.4 3.5 13.6 3.5 8.8 0 15.1-3.8 6.2-3.8 9.1-11.2h16.5q-2.5 8.1-8.3 14.6-5.8 6.5-14.1 10.3-8.3 3.8-17.9 3.8-12.4 0-22.6-6.2-10.2-6.2-16-16.7-5.8-10.5-5.8-23.1 0-12.6 5.8-23.2 5.9-10.6 16-16.7 10.2-6.2 22.6-6.2 12.2 0 22 6.1 9.9 6 15.5 16.1 5.5 10 5.5 21.7zm-71.8-7h56.8q-0.4-6.1-4.4-11.4-3.9-5.3-10.3-8.5-6.3-3.1-13.6-3.1-6.7 0-12.6 2.7-5.9 2.6-10.1 7.9-4.2 5.2-5.8 12.4zm198.2-36.9q16.3 0 24.6 10.8 8.5 10.8 8.5 31.6v47.3h-14.6v-47q0-14.7-5.9-21.7-5.8-7.2-16.6-7.2-6.6 0-12.5 3.8-5.9 3.9-9.4 10.8-3.5 6.8-3.5 15.5v45.8h-14.6v-47q0-14.7-5.8-21.8-5.8-7.1-16.6-7.1-6.6 0-12.5 3.8-5.9 3.9-9.5 10.8-3.5 6.8-3.5 15.5v45.8h-14.5v-87.2h13.8l0.2 16.8q2.2-5.4 6.6-9.8 4.5-4.4 10.5-6.9 6-2.6 12.9-2.6 11.7 0 19.3 5.7 7.7 5.6 11.1 16.7 4.9-10.9 13.3-16.7 8.4-5.7 18.7-5.7zm59.6 2.5h14.1v16.8q2.4-5.6 7.2-10 4.8-4.3 11.2-6.8 6.4-2.5 13.7-2.5 17.3 0 26.3 10.8 9 10.8 9 31.6v47.3h-14.7v-47q0-14.7-6.3-21.8-6.4-7.1-18.1-7.1-7.3 0-13.7 3.7-6.3 3.6-10.2 10.5-3.8 6.9-3.8 15.9v45.8h-14.7z"/>
		<path id="&gt;" class="s0" aria-label="&gt;"  d="m39.6 570.1q-2.5 0-5.2-2.2-2.5-2.2-2.5-5.5 0-3.7 2.7-5.2l59.1-38.9-59.1-39.2q-2.7-1.5-2.7-5.2 0-3.2 2.5-5.4 2.7-2.3 5.2-2.3 1.7 0 3 1l66.9 44.2q1.5 1 2.5 2.9 1.2 2 1.2 4 0 2-0.9 4-1 1.7-2.8 2.7l-66.9 44.1q-1.3 1-3 1z"/>
		<path id="_" class="s3" aria-label="_"  d="m996.3 574.4h-79.3q-2.5 0-4.2-2-1.8-2-1.8-5.2 0-3 1.8-5 1.7-2.2 4.2-2.2h79.3q2.5 0 4.5 2.2 2 2 2 5 0 3.2-2 5.2-2 2-4.5 2z"/>
	</g>
</svg>