<svg version="1.2" xmlns="http://www.w3.org/2000/svg" viewBox="0 0 1050 1050" width="2000" height="2000">
	<title>LOGO-TANDEMN</title>
	<style>
		.s0 { fill: #08565b } 
		.s1 { fill: #000000 } 
		.s2 { fill: #00f0ff } 
	</style>
	<g id="Page 2">
		<path id="Path 23 copy" fill-rule="evenodd" class="s0" d="m1004 397.7c-8.5-25.3-19.8-49.5-33.8-72.1-28.5-45.9-66.6-85.2-111.8-115-17.5-11.7-38.7-24.8-61.7-34.7-15-6.4-30.8-10.9-46.8-13.2-11.4-2-23.3-3.4-34.6-4.7-7.4-0.8-15-1.8-22.4-2.7-9-1.2-18.1-2.8-27.1-4.1-19.1-2.9-38.7-6.1-58.4-7.4-59.8-4.1-119.7 1.5-177.6 17.1-28.8 7.8-57 17.9-84.1 30.6-6.6 3.1-13.2 6.4-19.9 9.7-126.9 66.2-225.8 188.1-264.2 326.4-38.3 138.2-16.7 293.6 58.2 415.9 17 27.6 34.3 40.5 53.2 39.7 21.6-1 34.7-19.3 47.3-37 7-9.7 14-19.7 22.6-27.1 23.8-20.4 59.2-18.7 84.3-10.1 21.4 7.2 40.9 19.5 59.8 31.2 6.4 3.9 12.8 8 19.5 11.8 67.3 39.8 145.8 59.8 224.1 59.8 59 0.2 117.6-11.5 171.9-34.6 45-19.3 74-42.7 89.2-71.9 21.6-41.8 13-90.9 4.7-138.4-8.6-48.7-17.4-98.9 7.6-139.6 11.6-19.3 30-33.9 47.7-48.1 17.7-14.3 36.4-29.1 48.5-49.1 25.9-41.9 16.3-95.2 3.8-132.4zm-7.3 130.8c-11.9 19.3-30 33.9-47.8 47.9-17.9 14.4-36.4 29.2-48.6 49.1-25.7 41.9-16.8 92.9-8 142.3 8.2 47 16.7 95.3-4.3 136-14.6 28.2-43.2 51.2-87.2 69.9-125 53.5-275.4 44-392.6-25-6.4-3.9-13-7.9-19.5-11.8-19-11.9-38.7-24.2-60.5-31.6-11.9-4.1-24.6-6-37-6-18.1 0-36.4 4.7-51 17.1-9 7.6-16.2 17.9-23.4 27.9-12.7 17.7-24.5 34.4-44.2 35.2-17.3 0.8-33.5-11.7-49.7-37.8-74.1-121.5-95.8-275.9-57.6-413.2 38.2-137.2 136.3-258.2 262.7-323.8 6.4-3.3 13-6.6 19.7-9.7 26.8-12.5 54.7-22.6 83.3-30.4 57.4-15.4 117-21 176.2-16.9 19.5 1.3 39.2 4.4 58.2 7.4 9 1.3 18.1 2.7 27.1 4.1 7.4 0.9 15 1.9 22.4 2.7 11.3 1.3 23.2 2.7 34.7 4.5 15.7 2.5 31.1 6.8 45.7 13 22.8 9.7 43.6 22.8 61 34.3 44.7 29.4 82.3 68.3 110.6 113.9 13.8 22.4 25.1 46.3 33.4 71.3 12.3 36.6 21.7 88.5-3.6 129.6zm-64.1-195.9c-13.1-21.2-28.4-41-45.8-58.8-5.4-5.6-11.3-11.1-17.1-16.3-13.1-11.5-26.9-22-41.5-31.4-15.4-9.9-35.8-22.4-58-31.5-14-5.8-28.8-9.7-43.8-11.9-9-1.3-17.5-2.3-24.9-3.1l-9.2-1c-6.2-0.6-12.8-1.3-19.3-2.1-7.8-1-15.5-2-23.3-3.1-18.5-2.6-37.4-5.1-56.5-6.1-27.9-1.3-55.5-0.4-83.2 2.8-27.2 2.9-54.1 7.9-80.4 15.3-26.3 7.2-52 16.8-76.7 28.7-6 2.9-12.1 5.8-18.1 9.1-50.6 27.3-96.2 62.9-134.5 105.6-51.6 56.6-88.8 125-108.7 199-16.4 62.9-20.1 128.5-10.7 192.9 9.1 64.5 31.3 126.2 65.4 181.7 15.4 24.7 31 36.4 48.1 35.8 19.7-0.8 31.4-16.9 42.8-32.7 6.3-8.6 12.7-17.5 20.5-23.7 18.1-15.2 46.5-18.3 75.7-8.8 21.5 7 41.1 18.5 60.4 29.6 5.1 2.9 10.1 5.8 15.4 8.8 68.5 38.3 144.9 58.4 218.5 58.4 27 0 53.9-2.8 80.4-8.4 23.9-5.3 47.5-13.1 69.9-23.2 40.9-18.5 67.4-40.9 80.8-68.7 18.3-38 10.5-82 2.9-124.4-2.9-16.2-5.8-32.9-7.4-49.1-3.3-35.6 1.4-61.1 15-83 10.9-17.5 27.8-30.9 44-44.2 16.6-13.4 33.9-27 45.2-45.5 24.3-39.4 16.1-88.8 4.9-123.3-7.6-23.7-18-46.1-30.8-67.4zm22.8 188.1c-10.9 17.8-27.9 31.4-44.2 44.6-16.4 13.3-33.5 27.1-45 45.2-14.2 22.6-18.9 48.9-15.6 85.3 1.6 16.4 4.5 32.9 7.4 49.3 7.6 41.8 15.2 85.2-2.5 122.1-13.1 26.8-38.8 48.8-78.9 66.9-22.2 10-45.4 17.8-69.1 22.8-26.1 5.7-53 8.4-79.6 8.4-72.9 0-148.6-19.9-216.6-57.8-5-3-10.1-5.9-15.4-8.8-19.4-11.1-39.3-22.6-60.9-29.8-10.9-3.7-22.2-5.6-33.7-5.6-17.7 0-33.9 5-45.7 15.1-8 6.9-14.7 15.8-21.1 24.6-11.5 15.6-22.2 30.4-39.9 30.9-15.6 0.6-30-10.5-44.6-34-66.8-107.9-87.2-246.9-54.3-371.6 19.7-73.4 56.5-141.1 107.7-197.4 38.1-42.3 83.3-77.5 133.4-104.6 5.8-3.1 11.8-6 17.9-8.9 24.5-11.7 49.8-21.1 75.9-28.5 26.1-7.2 53-12.2 79.8-15.1 27.5-3.2 55.1-3.9 82.8-2.6 18.9 1 37.8 3.5 56.1 6.1 7.6 0.9 15.6 2.1 23.3 3.1 6.5 0.8 13.1 1.3 19.5 2.1l9.2 1c7.4 0.8 15.9 1.7 24.7 3.1 14.8 2.2 29 6 42.8 11.7 21.8 9 42.1 21.4 57.3 31.1q21.6 14.1 40.9 31c5.8 5.1 11.5 10.5 16.9 16.2 17.1 17.7 32.3 37.2 45.2 58.4 12.6 20.8 23 43 30.6 66.2 11.2 33.5 19.4 81.6-4.3 119.5zm-60.4-181c-11.9-19.7-26.1-38-42.2-54.4-5.1-5.2-10.6-10.3-16-15-12.1-10.7-25.1-20.2-38.8-28.8-21-13.2-37.7-22-54.3-28.4-13-5.1-26.9-8.6-40.7-10.5-8.6-1.2-16.7-2-23.2-2.7l-10.5-1c-5.2-0.4-10.7-1-15.9-1.6-6.5-0.6-12.9-1.3-19.3-2.1-17.9-2-36.4-4.1-54.7-4.7-25.7-0.6-51.6 0.8-77.1 4.1-24.6 2.9-48.9 8-72.9 14.8-23.7 6.8-46.9 15.8-69.3 26.7-6 2.9-11.3 5.6-16.3 8.3-46.4 25.7-88.1 59-123.3 98.4-47.5 52.4-81.2 115.8-98.1 184.4-13.9 56.2-16.4 114.5-8 171.7 8.4 57.3 28.4 112 59 161.2 13.6 21.7 27.2 32.2 42 32.2h1c17.5-0.6 28.2-14.6 38.6-28.3 5.6-7.4 11.5-15 18.3-20.6 15.9-13.1 41.3-15.8 67.3-7.2 22.6 7.2 42.7 17.9 63.7 29l8.4 4.5c53.1 28 128.3 57.4 210.1 57.4 22.4 0 44.8-2.3 66.6-6.8 22.4-4.9 44.2-12.3 64.8-22.2 36.6-17.5 61-39.7 72.5-65.8 15-34.1 7.8-72.8 0.9-110.6-2.9-16-6-32.5-7.4-48.5-2.5-31.7 2.2-55.7 15-75.5 10.2-16 25.5-28.3 40.3-40.3 15.4-12.3 31.2-25.2 41.9-42.1 22.8-36.4 15.6-81.8 5.6-113.5-6.8-21.6-16.1-42.5-28-62.1zm19.1 173.5c-10.1 16.3-25.9 28.8-40.9 41-15.2 12.1-30.8 24.8-41.3 41.1-13.2 20.7-18.3 45.6-15.6 78.1 1.4 16.2 4.5 32.7 7.4 48.9 7.2 38.7 13.9 75.3-0.5 108.2-11.1 25.2-34.9 46.8-70.5 63.9-20.3 9.7-41.9 17.1-63.9 22-105.5 22.4-207.4-15-274.2-50.2l-8.1-4.5c-20.5-10.9-41.5-22-64.5-29.4-9.7-3.3-20-4.9-30.4-5.1-15.7 0-30 4.5-40.5 13.1-7.2 5.8-13.2 13.6-18.9 21.4-10.3 13.6-19.8 26.3-35.6 26.7-13.8 0.4-26.7-9.6-39.7-30.2-60.4-96.2-78.7-216.3-50.6-330.1 16.7-67.9 50.2-130.8 97.1-182.6 35.1-39.1 76.4-72 122.3-97.6 4.9-2.7 10.1-5.4 16.2-8.3 22.2-10.7 45.1-19.7 68.7-26.5 23.6-6.8 47.7-11.7 72.2-14.6 25.4-3.3 51.1-4.7 76.6-4.1 18.3 0.6 36.6 2.5 54.5 4.7 6.4 0.8 12.8 1.3 19.3 2.1 5.2 0.6 10.7 1 15.9 1.6l10.4 0.9c6.2 0.6 14.6 1.4 22.9 2.8 13.7 1.9 27.1 5.2 39.9 10.3 16.2 6.4 32.8 15 53.6 28 13.4 8.6 26.3 17.9 38.2 28.5 5.4 4.6 10.7 9.7 15.7 15 16 16.1 30 34.2 41.7 53.5 11.7 19.3 21 39.7 27.8 61.1 10 31 16.8 75.2-5.2 110.3zm-56.7-166.3c-10.9-18.1-23.7-34.9-38.5-49.9-4.7-4.9-9.8-9.5-14.8-13.8-11.3-9.7-23.4-18.5-36-26.3-16-10.1-33-18.5-50.5-25.3-12.2-4.5-25.1-7.6-38-9.2-6.2-0.7-12.8-1.5-21.4-2.1l-12-1c-4.1-0.4-8.2-0.6-12.3-1l-14.8-1.1c-17.5-1.6-35.6-3.1-53.8-3.1h-0.1c-23.6 0.2-47.4 1.9-70.7 5.4-22 3.1-43.8 7.8-65.3 14.2-21.4 6.5-42 14.8-61.9 24.8-5.6 2.9-10.3 5.2-14.6 7.7-40.3 23-78.1 53.6-112.1 91.2-43.5 48.1-73.8 106.5-88.1 169.8-23.1 101.8-5.8 208.1 47.6 291.5 12.2 19.2 24.7 28.2 37.9 28.2 15.6-0.2 25-12.3 34.3-24 4.9-6.2 10.1-12.6 16.2-17.5 14-10.9 36-13 59-5.8 24.9 7.8 47.5 18.5 68.5 28.8 52 25.5 125 56.3 201.7 56.3 17.7 0 35.5-1.8 53-5.3 20.8-4.3 40.9-11.3 59.8-21 32.7-16.8 54.3-38 64-62.9 11.9-30.2 5.3-64.1-0.9-96.8-3.2-15.8-6.3-32.1-7.2-47.9-2-28.4 2.7-50.2 14.9-68.5 9.4-14.2 23.4-25.5 36.8-36.2 14.1-11.3 28.7-23.2 38.6-38.6 21.2-33.3 15.2-75 6.4-103.8-6.6-19.8-15-38.9-25.7-56.8zm15.6 158.7c-9.5 15-23.8 26.4-37.6 37.5-13.8 11.1-27.8 22.4-37.6 37.2-12.6 19.1-17.5 41.7-15.5 70.9 1.1 16 4.2 32.5 7.4 48.3 6.4 33.7 12.6 65.6 1.1 94.6-9.3 24-30.3 44.4-62.3 60.8-18.5 9.5-38.1 16.5-58.6 20.8-94 19.5-189.1-19.6-252.3-50.8-21.1-10.3-43.9-21-69-29-8.7-2.7-17.9-4.3-27-4.3-13.9 0-26.3 3.7-35.5 10.7-6.4 5.1-11.7 11.7-16.7 18.1-9.2 11.5-17.5 22.2-31.2 22.4h-0.6c-11.6 0-22.9-8.6-34.2-26.5-52.8-82.5-69.9-187.7-47-288.5 14.1-62.5 44-120.4 86.9-168.1 33.7-37.2 71.3-67.7 111.2-90.3 4.3-2.4 8.7-4.9 14.4-7.8 19.6-10 40.3-18.1 61.3-24.6 21.2-6.4 42.9-11.1 64.7-14 23.1-3.5 46.5-5.2 70.1-5.4h0.2c17.9 0 35.8 1.5 53.3 3.1l14.6 1.2 12.3 0.9c4.1 0.2 8 0.6 12.1 1 8.5 0.8 14.9 1.4 21.4 2.1 12.6 1.6 24.9 4.7 36.8 9 17.3 6.8 34 15.2 49.8 25.1 12.7 7.6 24.6 16.4 35.7 25.9 5 4.3 9.9 9 14.6 13.6 14.6 14.8 27.4 31.2 38.1 49.1 10.5 17.5 18.9 36.4 24.9 56.1 8.6 28.4 14.5 68.7-5.8 100.9zm-53.2-151.5c-9.7-16.6-21.4-31.8-35-45.2-4.5-4.5-9-8.6-13.8-12.7-10.5-8.7-21.6-16.7-33.5-23.7-14.8-9-30.6-16.4-46.9-22.2-11.3-3.9-23-6.4-34.9-7.8-5.8-0.6-12.1-1.2-19.7-1.8-4.6-0.2-9.5-0.5-14.2-0.7l-8.2-0.4-9.1-0.6c-17.5-1-35.6-2.2-53.6-1.6-21.6 0.8-43.2 3.1-64.6 6.8-19.5 3.2-38.8 7.6-57.6 13.7-18.9 6-37 13.6-54.6 22.8-5 2.7-9.1 4.8-12.8 7-35.6 21-69.7 49.4-100.9 84.1-39.3 43.8-66 97.3-77.3 155.2-17.9 88.8-1.9 179.9 43.8 250 10.7 16.4 21.4 24.3 32.9 24.3 13.5 0 21.8-9.9 29.8-19.4 4.1-5.3 8.8-10 13.9-14.3 17.1-12.6 41-7.2 50.6-4.4 22.2 6.4 43.8 14.4 65 23.7 58.6 26.5 123.7 55.7 190.8 55.7 14.1 0 28.1-1.3 41.9-4.1 19.1-3.9 37.4-10.7 54.5-20 19.9-11.1 45.8-30.4 55.7-60 8.8-26.3 2.9-55.3-2.7-83.1-3.1-15.6-6.4-31.6-7.2-47.2-1.4-25.1 3.3-44.4 14.8-61.1 8.6-12.5 21-22.6 33.1-32.3 12.8-10.4 26.1-21.1 35-35.1 19.7-30.4 14.8-67.9 7.4-94.2-5.4-17.7-13-35.3-22.6-51.4zm11.7 143.9c-8.7 13.4-21.6 23.9-34.2 34.2-12.3 10-25 20.1-33.9 33.1-12.1 17.6-17 37.8-15.6 63.7 0.8 15.8 4.1 31.9 7.4 47.7 5.8 28.8 11.5 55.9 2.9 81.2-9.5 28.2-34.6 46.9-53.9 57.6-16.8 9.4-34.7 16-53.4 19.9-80.4 16-160-19.9-230.1-51.6-21.3-9.5-43.1-17.5-65.3-24.1-7.7-2.6-15.9-3.7-24.1-3.9-11.7 0-22 2.9-30 8.7-5.4 4.3-10.3 9.4-14.6 14.8-7.8 9.4-15.2 18.1-26.9 18.1-10.1 0-19.8-7.4-29.8-22.5-45.3-69.4-61.1-159.3-43.4-247.1 11.3-57.1 37.8-110.1 76.5-153.3 31-34.3 64.7-62.3 100.1-83.3 3.5-2.2 7.6-4.3 12.7-7 17.3-9.2 35.4-16.6 53.9-22.6 18.7-5.9 37.6-10.3 57.1-13.5 21.2-3.7 42.6-6 64.2-6.8 17.8-0.6 35.7 0.6 53.2 1.6l9.1 0.6 8.2 0.4c4.7 0.2 9.6 0.3 14.2 0.7 7.6 0.4 13.9 1 19.5 1.8 11.7 1.2 23 3.9 34.1 7.6 16 5.8 31.5 13.2 46.1 22 11.7 6.8 22.6 14.6 32.9 23.4 4.7 3.8 9.2 8.1 13.7 12.4 13.2 13.3 24.9 28.2 34.4 44.4 9.6 16 17 33.1 22 51 7.2 25.1 11.9 61.6-7 90.8zm-49.2-136.9c-8.6-15-19.3-28.6-31.6-40.7-4.1-3.9-8.4-7.8-12.6-11.3-9.6-8-20.1-15-30.8-21-13.6-7.8-28-14.3-43-19.1-10.4-3.3-21.1-5.5-32-6.4-5.4-0.6-11.1-1-17.9-1.2-5.4-0.2-11.1-0.4-16.5-0.6l-5.9-0.2c-17.9-0.6-36.6-1-54.9 0.2-19.7 1.6-39.1 4.3-58.4 8.4-16.9 3.1-33.7 7.4-50 13q-24.6 8.5-47.4 21c-3.3 1.8-7.2 4.1-11.1 6.5-30.9 19.4-61.1 45.1-89.7 76.9-34.3 38-58 87.8-67 140.4-12.9 75.3 1.7 151.3 40.3 208.3 5.8 8.6 15 20.3 27.8 20.5h0.6c10.9 0 18.1-7.6 25-15 3.5-4.1 7.4-7.8 11.6-10.9 10-6.8 25.3-7.8 42.3-2.9l12.1 3.3c16.7 4.2 33.1 9.7 49.2 15.9 11.1 4.5 22.6 9.6 33.7 14.2 46.9 20.3 95.2 41.1 145.3 41.1 10.7 0 21.2-0.9 31.7-2.9 17.5-3.5 34.1-9.9 49.3-19.3 17.5-10.5 39.9-29 47.3-57 6-22.4 0.8-45.4-4.5-69.9-3.3-15-6.8-30.6-7.4-46-0.8-21.4 4.1-39.1 14.8-53.9 7.8-10.9 18.7-19.9 29.4-28.4 11.7-9.4 23.6-19.1 31.9-31.8 18.2-27.4 14.5-60.9 8.2-84.5-4.6-16.2-11.3-31.9-19.8-46.7zm7.9 129.1c-7.9 12-19.6 21.6-30.9 30.7-10.7 8.8-22 17.8-30 29.1-11.3 15.5-16.4 34-15.6 56.2 0.6 15.6 4.1 31.4 7.4 46.8 5.3 23.9 10.3 46.5 4.7 67.9-7.2 26.7-28.8 44.4-45.6 54.7-14.8 9.2-31.1 15.4-48.1 18.7-60.1 11.5-118.4-13.6-174.6-37.7-11.1-4.7-22.6-9.8-33.7-14.3-16.2-6.2-32.7-11.6-49.7-15.9l-11.8-3.5c-18-5.1-34.5-3.9-45.4 3.5-4.5 3.3-8.8 7.2-12.5 11.5-6.6 7.2-13 14-22.6 13.8-8.3-0.2-16.1-6.2-24.7-18.7-38.2-56.1-52.6-131.1-39.9-205.4 9-52 32.3-101.1 66-138.7 28.4-31.5 58.2-57 89-76.1 3.9-2.3 7.8-4.5 10.9-6.2 15-8.2 30.6-15.2 46.5-20.7q24.3-8.2 49.7-12.8c19.1-3.9 38.5-6.7 58-8.2 18.1-1.2 35.8-0.8 54.7-0.2l5.9 0.2c5.4 0.2 10.9 0.2 16.5 0.6 6.8 0.2 12.5 0.6 17.7 1.1 10.6 1 21.1 3.2 31 6.3 14.8 4.8 29 11.1 42.4 18.9 10.8 6 20.9 12.8 30.2 20.6 4.3 3.5 8.6 7.4 12.5 11.1 12.1 11.9 22.4 25.3 30.8 39.9 8.3 14.4 14.8 29.8 19 46 6.1 22.2 9.6 54.7-7.8 80.8zm-45.5-121.9c-7.6-13.3-17-25.5-27.9-36-3.7-3.5-7.6-7.1-11.6-10.2-8.8-7-18.2-13.2-28.1-18.5-12.4-6.8-25.7-12-39.3-16.1-9.6-2.6-19.3-4.3-29-4.9-5.1-0.4-10.3-0.6-16.2-0.8-5.8-0.2-12.3 0-18.5 0-17.1 0-34.3 0.8-51.2 2.6-17.5 2.3-35 5.4-52.4 9.7-14.4 3.1-28.6 7.2-42.4 12.5-13.9 5.2-27.1 11.6-39.9 19-3 1.8-6.3 3.7-9.4 5.9-26.7 17.7-52.4 40.5-78.7 69.9-30.3 33.9-50.4 78.5-56.6 125.8-8.2 62.7 4.8 121.9 36.8 166.8 4.9 6.9 12.4 16 22.8 16.6 9.1 0.6 15.2-5.1 21-10.7 2.9-2.9 6-5.5 9.5-7.8 10.9-6.4 25.9-3.7 33.9-1.6 7.8 2.2 15.6 3.9 23 5.5 11.7 2.3 23.2 5.3 34.7 9.1 17.1 6.1 34.4 13.9 51.2 21.5 36.6 16.5 74.3 33.5 113.9 33.5 7.8 0 15.6-0.8 23.3-2.2 15.8-2.9 31-9.1 44.2-18.3 21.5-14.4 35.1-33.5 39-54.1 3.5-18.5-1.2-37.2-6.2-56.9-3.7-14.6-7.4-29.6-7.6-44.4-0.2-18.1 4.6-33.5 14.8-46.7 7-9.2 16.3-16.9 25.5-24.3 10.3-8.4 21.2-17.2 28.6-28.3 16.5-24.5 14-54.1 9.1-74.8-3.5-14.8-8.9-28.8-16.3-41.8zm4.3 114.3c-7.2 10.7-17.8 19.3-27.9 27.4-9.3 7.6-18.9 15.6-26.3 25-10.7 14-15.7 30.1-15.5 49 0.2 15.4 4 30.6 7.7 45.4 4.9 19.5 9.4 37.6 6.1 55.3-3.7 19.5-16.8 37.8-37.2 51.6-12.9 8.8-27.5 14.8-42.6 17.7-47 8.6-91.8-11.7-135-31.1-16.7-7.6-34.3-15.6-51.4-21.5-11.5-3.7-23.2-6.8-35-9.1-7.4-1.6-15.2-3.3-22.8-5.5-8.6-2.3-24.8-5-36.8 2-3.7 2.3-7.2 5.1-10.2 8.2-5.4 5.2-10.7 10.1-18.3 9.5-8.5-0.6-15.5-8.8-19.8-15-31.4-44.2-44-102.4-36-164.1 6-46.6 25.9-90.6 55.6-123.9 26.1-29 51.5-51.6 77.9-69.1 3.2-2.1 6.3-3.9 9.2-5.6 12.4-7.4 25.7-13.7 39.3-18.9 13.7-5.1 27.7-9.2 41.9-12.3 17.1-4.3 34.5-7.4 51.8-9.7 16.9-1.8 33.9-2.6 50.8-2.6 6.2 0 12.3 0 18.3 0 6 0 11.1 0.4 16 0.8 9.5 0.6 18.9 2.3 28.2 4.9 13.2 3.9 26.1 9.1 38.4 15.8 9.7 5 19 11.1 27.6 18.1 3.9 3.1 7.8 6.4 11.3 9.9 21.2 20.8 36.4 47.1 43.4 75.9 4.7 20.1 7 48.7-8.7 71.9zm-41.9-107.3c-6.4-11.7-14.6-22.4-24.1-31.6-3.4-3.1-6.9-6-10.6-8.9-7.9-6.2-16.5-11.5-25.5-15.8-11.3-5.6-23.3-9.9-35.6-13-8.6-2-17.1-3.1-25.9-3.5-4.5-0.2-9.3-0.2-14.4-0.2-4.9 0-10.1 0.2-16.6 0.6-15.3 0.7-30.5 2.3-45.5 4.8-15.6 2.8-30.8 6.8-46.2 11.3-11.8 3.1-23.3 7.2-34.8 11.9-11.3 4.9-22.2 10.5-32.5 17.1-2.6 1.6-5.1 3.3-7.6 5.1-21.8 15.8-43.8 36.2-67.4 62.5-26.7 29.8-43.2 69.5-46.2 111.4-3.5 48.3 8.4 92.7 33.1 125.4 3.9 5 10 11.9 17.8 12.6 7.2 0.8 12-2.7 16.7-6 2.3-1.8 4.7-3.3 7.2-4.5 7.8-3.5 18.3-2.1 25.7-0.2 8.4 2 17 3.5 25.5 4.5 9.6 1 19.1 2.9 28.5 5.3 19.8 5.8 39.3 15.5 58 24.9 29.4 14.8 59.6 30 91.7 30 5.6 0 11.1-0.4 16.5-1.4 14.3-2.5 27.7-8.6 39.2-17.3 17.9-13.7 29-32.3 30.6-51.2 1.1-14.8-3.4-30-7.6-44.6-4.1-13.8-8.4-28.1-8-42.3 0.2-14.4 5.2-28.4 14.6-39.5 6-7.4 14-14 21.6-20.3 9.1-7.6 18.7-15.1 25.5-25.1 11.7-16.7 15.4-39.9 9.9-65-2.5-13.1-7.2-25.5-13.6-37zm0.6 99.7c-6.4 9.3-15.8 16.9-24.7 24.3-7.8 6.5-16 13.1-22.2 20.7-10 11.7-15.4 26.4-15.6 41.8-0.2 14.8 4.1 29.4 8.2 43.5 4.4 14.9 8.5 29 7.4 43.2-1.6 17.9-12.1 35.4-29.1 48.3-10.9 8.5-23.7 14.2-37.3 16.5-37.4 6.3-70.7-10.5-106-28.2-18.9-9.6-38.5-19.5-58.8-25.1-9.5-2.6-19.2-4.3-29-5.5-8.5-1-16.9-2.5-25.1-4.5-8-1.9-19.5-3.5-28.2 0.4-2.8 1.4-5.5 2.9-8 4.9-4.5 3.3-8.4 6-14 5.4-6.3-0.7-11.7-6.8-15-11.2-24.4-31.8-35.9-75.4-32.4-122.7 3-40.9 19.1-79.7 45.2-109.1 23.4-26.1 45.2-46.5 66.8-62.1 2.5-1.7 5.1-3.5 7.4-5 10.1-6.5 20.8-12.1 31.9-16.8 11.1-4.7 22.6-8.6 34.3-11.7 15.4-4.2 30.4-8.3 45.8-11.1 15-2.5 30-4.1 45.1-4.8 6.5-0.4 11.7-0.6 16.4-0.6 5.1 0 9.7 0 14.2 0.2q12.9 0.6 25.1 3.5c12.1 2.9 23.8 7.2 34.9 12.6 8.8 4.3 17.1 9.6 24.9 15.6 3.5 2.7 7 5.7 10.1 8.8 9.4 8.9 17.4 19.3 23.6 30.5 6.2 11.1 10.7 23.2 13.4 35.7 5.3 24.5 2 46.5-9.3 62.5zm-38.2-92.5c-5.2-10.1-12.2-19.3-20.6-27.1-2.9-2.7-6.1-5.2-9.4-7.8-7.2-5.2-14.8-9.7-22.9-13.2-10.4-4.5-21.1-7.8-32-9.9-7.6-1.4-15.2-2.2-23-2.2-4 0-8.3 0-12.6 0.2-4.3 0.2-9.4 0.6-14.4 1.2-13.5 1.4-26.7 3.9-39.9 7.2-13.3 3.3-26.5 8-40 12.7-9.3 3.1-18.3 6.8-27 11.2q-13.2 6.8-25.1 15.2c-1.8 1.4-3.9 2.8-5.9 4.5-22 17.9-41.5 39-56.1 55.5-23.5 26.7-36.2 61.3-35.8 97 0.6 32.9 11.1 62.7 29.6 83.7 3.1 3.5 7.2 7.6 12.3 8.8 4.3 0.7 8.5 0.4 12.4-1.4 1.6-0.6 3.4-1.2 4.9-1.6 4.3-0.9 10.1-0.5 17.7 1.2q12.9 2.4 25.7 2.4c8.4 0.1 16.6 0.9 24.8 2.3 20.4 4.5 39.9 15.8 58.4 26.9 23.5 13.8 47.9 28 74.6 28 3.7 0 7.4-0.2 11.1-0.8 12.6-2.1 24.5-7.8 34-16.3 14.6-13.1 23-31 22-48.3-0.6-11.3-4.6-22.4-8.7-33.3-4.7-12.7-9.6-25.7-8.8-39 0.8-11.6 5.5-22.2 14.6-32.3q8.2-8.5 17.5-15.8c8.2-6.6 16.6-13.6 22.8-22 10.7-14.4 14.4-34 10.9-55.3-2.1-11.3-5.8-22-11.1-31.7zm-3.1 84.7c-5.8 8-14 14.8-22 21.4-6.4 5.1-12.5 10.3-17.9 16.2-9.7 10.7-14.8 22-15.6 34.6-1 14.3 4.1 27.7 9 40.5 4.1 11.1 8 21.5 8.5 32.2 0.8 16.1-7 32.9-20.6 45.1-9 8.2-20.1 13.7-32.1 15.6-29.8 4.7-55.7-10.7-83.2-26.8-18.9-11.1-38.5-22.6-59.6-27.1-8.3-1.6-16.9-2.4-25.3-2.5-8.3-0.2-16.7-1-25.1-2.8-4.3-0.9-8.8-1.5-13.2-1.7-2 0-4.1 0.2-6.1 0.6-1.7 0.3-3.7 0.9-5.2 1.5-3.5 1.2-6.5 2.2-10.3 1.4-3.9-0.8-7.6-4.5-10.4-7.6-17.9-20.3-28-49.1-28.6-81.2-0.4-34.7 12.1-68.2 34.9-94.3 14.4-16.3 33.8-37.1 55.7-54.9 1.9-1.5 3.8-3.1 5.6-4.2 7.8-5.7 16-10.8 24.5-15 8.6-4.3 17.6-8 26.7-11.1 13.4-4.7 26.5-9.2 39.5-12.5 12.9-3.3 26.1-5.7 39.4-7 5-0.6 9.7-1 14.2-1.2 4.5-0.2 8.6-0.4 12.4-0.2 7.4 0 15 0.8 22.4 2.2 10.8 1.9 21.3 5.2 31.2 9.7 7.8 3.5 15.4 7.8 22.2 12.9 3.1 2.3 6.2 4.8 9 7.4 7.9 7.4 14.8 16.3 19.8 25.8 5.1 9.6 8.8 19.9 10.5 30.6 3.3 20.3-0.2 38.8-10.3 52.4zm-51.6-100.1c-2.5-2.3-5.4-4.5-8.2-6.4-21-14.6-49.2-20.8-79.6-17.5-29.6 3.1-58.6 15.2-80.4 25.5-15.2 6.8-29.2 16.1-41.3 27.8-16.2 15.6-31.4 32.9-44.8 48.3-21.4 24.3-31 55.1-25.3 82.6 5.6 27.8 27.6 50 53.3 54.1 8.2 1 16.4 1 24.6 0.2 7.4-0.8 15-0.8 22.4 0 20 2.5 37.6 15.4 54.7 27.6 18.7 13.7 38 27.5 60.4 27.5 2.3 0 4.6-0.2 7-0.4 28.6-5.1 47.7-32.1 42.6-60.7 0-0.2 0-0.2 0-0.4-1.7-8.2-5.8-16-9.5-23.6-5.7-11.5-11.1-22.2-9.8-33.9 2-15.2 14.2-25.1 27.1-35.8 7.4-6 15-12.3 20.8-19.7 22.2-29.6 10.9-73.2-14-95.2zm10.5 92.5c-5.4 7-12.8 13.1-20 19.1-13.1 10.5-26.3 21.6-28.5 38.3-1.5 12.9 4.3 24.8 10.2 36.3 3.7 7.4 7.6 15 9.3 22.7 4.7 26.5-12.8 51.6-39.3 56.5-23.8 3.1-43.6-11.1-64.5-26.3-17.5-12.6-35.4-25.7-56.4-28.2q-5-0.6-10-0.6c-4.5 0-8.9 0.2-13.2 0.6-7.8 0.8-15.8 0.8-23.8-0.2-23.7-3.7-44.8-25.1-50.2-51-5.5-25.9 3.9-55.7 24.5-79.1 13.5-15.2 28.7-32.5 44.6-47.9 11.9-11.3 25.5-20.4 40.3-27 21.6-10.2 50.3-22 79.3-25.2 29.6-3.1 56.8 2.8 77.1 16.8 2.7 1.9 5.4 3.9 7.8 6.2 23.3 20.3 34.2 61.4 12.8 89z"/>
		<path id="t" class="s1" aria-label="t"  d="m576.3 682q-24.8 0-40.6-14.3-15.8-14.2-15.8-52.2v-86.4h-40v-26.6h40v-53.3l30.2-0.1v53.4h59.3v26.6h-59.3v87.8q0 22.7 8.8 31.1 9 8.3 23.4 8.3h27.1v25.7z"/>
		<path id="&gt;" class="s1" aria-label="&gt;"  d="m292.3 672.3q-5.1 0-10.7-4.6-5.1-4.6-5.1-11.2 0-7.6 5.6-10.7l121.4-80.1-121.4-80.6q-5.6-3-5.6-10.7 0-6.6 5.1-11.2 5.6-4.6 10.7-4.6 3.6 0 6.1 2l137.7 90.8q3.1 2.1 5.1 6.1 2.6 4.1 2.6 8.2 0 4.1-2 8.2-2.1 3.5-5.7 5.6l-137.7 90.8q-2.5 2-6.1 2z"/>
		<path id="_ copy 2" class="s2" aria-label="_"  d="m837.3 680.6h-163.2q-5.1 0-8.7-4.1-3.6-4.1-3.6-10.7 0-6.1 3.6-10.2 3.6-4.6 8.7-4.6h163.2q5.1 0 9.2 4.6 4.1 4.1 4.1 10.2 0 6.6-4.1 10.7-4.1 4.1-9.2 4.1z"/>
	</g>
</svg>